<?xml version="1.0" encoding="utf-8"?>
<!-- Generator: Adobe Illustrator 16.0.0, SVG Export Plug-In . SVG Version: 6.00 Build 0)  -->
<!DOCTYPE svg PUBLIC "-//W3C//DTD SVG 1.1//EN" "http://www.w3.org/Graphics/SVG/1.1/DTD/svg11.dtd">
<svg version="1.1" id="Layer_1" xmlns="http://www.w3.org/2000/svg" xmlns:xlink="http://www.w3.org/1999/xlink" x="0px" y="0px"
	 width="1350px" height="1000px" viewBox="0 0 1350 1000" enable-background="new 0 0 1350 1000" xml:space="preserve">
<path fill-rule="evenodd" clip-rule="evenodd" fill="#FFFFFF" stroke="#000000" stroke-miterlimit="10" d="M1005.839,258.35
	c-37.135-27.376-69.334-59.721-96.426-97.097c-3.631-5.009-7.006-10.201-10.498-15.31c-6.532-10.567-13.346-20.973-19.507-31.751
	c-5.646-9.871-10.588-20.146-16.04-30.627c-52.651,127.116-105.159,253.887-157.976,381.39
	c127.767-52.924,254.655-105.482,382.197-158.314c-8.65-4.323-16.646-8.002-24.329-12.241c-9.731-5.366-19.209-11.187-28.801-16.811
	C1024.904,271.197,1015.083,265.163,1005.839,258.35z"/>
<path fill-rule="evenodd" clip-rule="evenodd" fill="#FFFFFF" stroke="#000000" stroke-miterlimit="10" d="M471.936,163.455
	c-15.573,21.387-32.855,41.34-52.148,59.472c-20.119,18.906-41.636,36.08-64.949,50.909c-8.493,5.403-17.301,10.31-25.967,15.442
	c-10.815,5.786-21.631,11.572-32.771,17.532c126.93,52.574,253.771,105.109,381.486,158.006
	C624.643,337.002,572.161,210.309,519.424,82.994c-4.777,9.418-8.931,18.176-13.601,26.648c-4.74,8.607-9.992,16.933-15.02,25.383
	C484.538,144.52,478.624,154.27,471.936,163.455z"/>
<path fill-rule="evenodd" clip-rule="evenodd" fill="#ED1F24" stroke="#000000" stroke-miterlimit="10" d="M691.092,456.18
	c0.372-0.017,0.743-0.035,1.117-0.052c52.142-125.889,104.286-251.779,156.426-377.67c-0.319-0.272-0.639-0.544-0.958-0.814
	c-104.121,36.859-208.242,36.856-313.518-0.32C586.806,204.42,638.948,330.3,691.092,456.18z"/>
<path fill-rule="evenodd" clip-rule="evenodd" fill="#FFFFFF" stroke="#000000" stroke-miterlimit="10" d="M519.95,873.313
	c52.562-126.892,104.91-253.271,157.578-380.419c-126.941,52.581-252.936,104.77-379.62,157.245
	C398.793,698.281,472.427,772.443,519.95,873.313z"/>
<path fill-rule="evenodd" clip-rule="evenodd" fill="#FFFFFF" stroke="#000000" stroke-miterlimit="10" d="M914.725,787.293
	c15.429-21.355,33.522-40.4,52.71-58.35c17.838-16.686,36.795-32.045,57.695-44.852c12.598-7.615,25.091-15.411,37.832-22.783
	c6.964-4.023,14.341-7.321,21.977-11.173C958.578,597.799,832.607,545.62,705.6,493.014c52.749,127.348,105,253.496,157.604,380.488
	c1.217-2.352,1.941-3.83,2.736-5.273c8.926-16.199,17.86-32.387,26.792-48.58C900.046,808.85,907.091,797.859,914.725,787.293z"/>
<path fill-rule="evenodd" clip-rule="evenodd" fill="#ED1F24" stroke="#000000" stroke-miterlimit="10" d="M1090.197,322.66
	c-125.211,51.862-250.419,103.726-375.628,155.588c0.013,0.438,0.021,0.875,0.031,1.313
	c125.438,51.952,250.878,103.907,376.32,155.861c0.315-0.274,0.633-0.554,0.952-0.829c-36.699-103.662-36.947-207.39-0.633-311.183
	C1090.892,323.16,1090.543,322.911,1090.197,322.66z"/>
<path fill-rule="evenodd" clip-rule="evenodd" fill="#ED1F24" stroke="#000000" stroke-miterlimit="10" d="M291.43,323.517
	c17.527,50.467,26.937,102.065,26.844,155.726c-0.09,53.73-9.996,105.312-27.623,155.803c0.352,0.175,0.703,0.345,1.054,0.52
	c125.649-52.046,251.299-104.092,377.999-156.573c-126.544-52.415-251.93-104.35-377.318-156.287
	C292.068,322.977,291.75,323.246,291.43,323.517z"/>
<path fill-rule="evenodd" clip-rule="evenodd" fill="#ED1F24" stroke="#000000" stroke-miterlimit="10" d="M848.554,878.857
	c-52.398-126.496-104.361-251.941-156.324-377.387c-0.384,0.044-0.768,0.092-1.152,0.136
	c-51.91,125.31-103.818,250.618-156.175,377.003C639.818,841.678,743.688,841.803,848.554,878.857z"/>
</svg>
